<?xml version="1.0" encoding="utf-8"?>
<!-- Generator: Adobe Illustrator 23.1.0, SVG Export Plug-In . SVG Version: 6.00 Build 0)  -->
<svg version="1.1" xmlns="http://www.w3.org/2000/svg" xmlns:xlink="http://www.w3.org/1999/xlink" x="0px" y="0px"
	 viewBox="0 0 3000 2000" style="enable-background:new 0 0 3000 2000;" xml:space="preserve">
<style type="text/css">
	.st0{fill:#FFFFFF;}
	.st1{opacity:0.3;}
	.st2{opacity:0.2;}
	.st3{opacity:0.1;}
	.st4{opacity:0.5;}
	.st5{opacity:0.8;}
	.st6{opacity:0.4;}
</style>
<g id="Layer_2">
	<rect class="st0" width="3000" height="2000"/>
</g>
<g id="Layer_1">
	<g>
		<g>
			<circle cx="2285.46" cy="549.93" r="9.61"/>
		</g>
		<g>
			<g>
				<path d="M3000,656.39h-466.57c-12.69,0-24.63-4.94-33.61-13.92l-78.94-78.94c-9.27-9.27-21.6-14.38-34.71-14.38h-82.97
					c-0.41-9.44-8.2-17-17.74-17c-9.8,0-17.78,7.98-17.78,17.78c0,9.8,7.98,17.78,17.78,17.78c9.54,0,17.33-7.56,17.74-17h82.97
					c12.69,0,24.63,4.94,33.6,13.92l78.94,78.94c9.27,9.27,21.6,14.38,34.71,14.38H3000V656.39z M2285.46,564.59
					c-8.08,0-14.66-6.57-14.66-14.66c0-8.08,6.57-14.66,14.66-14.66c8.08,0,14.66,6.58,14.66,14.66
					C2300.12,558.02,2293.54,564.59,2285.46,564.59z"/>
			</g>
		</g>
	</g>
	<g>
		<path d="M2679.24,575.19h253.25c13.11,0,25.44-5.11,34.71-14.38l32.8-32.8v-2.21l-33.9,33.9c-8.98,8.98-20.91,13.92-33.6,13.92
			h-253.25c-0.41-9.44-8.2-17-17.74-17c-9.8,0-17.78,7.98-17.78,17.78c0,9.8,7.98,17.78,17.78,17.78
			C2671.04,592.19,2678.82,584.63,2679.24,575.19z M2646.84,574.4c0-8.08,6.57-14.66,14.66-14.66c8.08,0,14.66,6.58,14.66,14.66
			c0,8.08-6.57,14.66-14.66,14.66C2653.41,589.06,2646.84,582.49,2646.84,574.4z"/>
	</g>
	<g>
		<path d="M2729.24,49.39h203.25c13.11,0,25.44-5.11,34.71-14.38l32.8-32.8V0l-33.9,33.9c-8.98,8.98-20.91,13.92-33.6,13.92h-203.25
			c-0.41-9.44-8.2-17-17.74-17c-9.8,0-17.78,7.98-17.78,17.78c0,9.8,7.98,17.78,17.78,17.78
			C2721.04,66.39,2728.83,58.83,2729.24,49.39z M2696.85,48.61c0-8.08,6.58-14.66,14.66-14.66s14.66,6.57,14.66,14.66
			c0,8.08-6.57,14.66-14.66,14.66S2696.85,56.69,2696.85,48.61z"/>
		<circle cx="2711.5" cy="48.61" r="9.61"/>
	</g>
	<g>
		<path d="M2601.01,66.39c9.8,0,17.78-7.98,17.78-17.78c0-9.8-7.98-17.78-17.78-17.78c-9.54,0-17.33,7.56-17.74,17h-203.25
			c-12.69,0-24.63-4.94-33.6-13.92L2312.51,0v2.21l32.8,32.8c9.27,9.27,21.6,14.38,34.71,14.38h203.25
			C2583.68,58.83,2591.47,66.39,2601.01,66.39z M2601.01,63.26c-8.08,0-14.66-6.58-14.66-14.66c0-8.08,6.57-14.66,14.66-14.66
			c8.08,0,14.66,6.57,14.66,14.66C2615.67,56.69,2609.09,63.26,2601.01,63.26z"/>
	</g>
	<g>
		<path d="M2705.5,1725.16c-9.8,0-17.78,7.98-17.78,17.78c0,9.8,7.98,17.78,17.78,17.78c9.54,0,17.33-7.56,17.74-17h209.25
			c12.69,0,24.63,4.94,33.6,13.92l33.9,33.9v-2.21l-32.8-32.8c-9.27-9.27-21.6-14.38-34.71-14.38h-209.25
			C2722.83,1732.72,2715.04,1725.16,2705.5,1725.16z M2705.5,1728.29c8.08,0,14.66,6.58,14.66,14.66c0,8.08-6.57,14.66-14.66,14.66
			s-14.66-6.58-14.66-14.66C2690.85,1734.86,2697.42,1728.29,2705.5,1728.29z"/>
		<g>
			<g>
				<path d="M2712.78,1742.95c0,4.02-3.26,7.28-7.28,7.28c-4.02,0-7.28-3.26-7.28-7.28c0-4.02,3.26-7.28,7.28-7.28
					C2709.52,1735.66,2712.78,1738.92,2712.78,1742.95z"/>
			</g>
		</g>
	</g>
	<g>
		<path d="M2387.51,1933.61c-9.8,0-17.78,7.98-17.78,17.78c0,9.8,7.98,17.78,17.78,17.78c9.54,0,17.33-7.56,17.74-17h253.25
			c12.69,0,24.63,4.94,33.6,13.92l33.9,33.9v-2.21l-32.8-32.8c-9.27-9.27-21.6-14.38-34.71-14.38h-253.25
			C2404.84,1941.17,2397.05,1933.61,2387.51,1933.61z M2387.51,1936.74c8.08,0,14.66,6.57,14.66,14.66
			c0,8.08-6.57,14.66-14.66,14.66c-8.08,0-14.66-6.58-14.66-14.66C2372.85,1943.31,2379.43,1936.74,2387.51,1936.74z"/>
		<g>
			<g>
				<path d="M2394.79,1951.39c0,4.02-3.26,7.28-7.28,7.28c-4.02,0-7.28-3.26-7.28-7.28c0-4.02,3.26-7.28,7.28-7.28
					C2391.53,1944.11,2394.79,1947.37,2394.79,1951.39z"/>
			</g>
		</g>
	</g>
	<g>
		<path d="M2539.59,833.53c0,9.8,7.98,17.78,17.78,17.78c9.54,0,17.33-7.56,17.74-17h253.25c13.11,0,25.44-5.11,34.71-14.38
			l65.87-65.87c8.98-8.98,20.91-13.92,33.61-13.92H3000v-1.56h-37.46c-13.11,0-25.44,5.11-34.71,14.38l-65.87,65.87
			c-8.97,8.98-20.91,13.92-33.6,13.92h-253.25c-0.41-9.44-8.2-17-17.74-17C2547.56,815.75,2539.59,823.73,2539.59,833.53z
			 M2542.71,833.53c0-8.08,6.57-14.66,14.66-14.66s14.66,6.58,14.66,14.66c0,8.08-6.57,14.66-14.66,14.66
			S2542.71,841.61,2542.71,833.53z"/>
	</g>
	<g>
		<path d="M2539.59,1629.84c0,9.8,7.98,17.78,17.78,17.78c9.54,0,17.33-7.56,17.74-17h253.25c13.11,0,25.44-5.11,34.71-14.38
			l65.87-65.87c8.98-8.98,20.91-13.92,33.61-13.92H3000v-1.56h-37.46c-13.11,0-25.44,5.11-34.71,14.38l-65.87,65.87
			c-8.97,8.98-20.91,13.92-33.6,13.92h-253.25c-0.41-9.44-8.2-17-17.74-17C2547.56,1612.06,2539.59,1620.04,2539.59,1629.84z
			 M2542.71,1629.84c0-8.08,6.57-14.66,14.66-14.66s14.66,6.57,14.66,14.66c0,8.08-6.57,14.66-14.66,14.66
			S2542.71,1637.92,2542.71,1629.84z"/>
	</g>
	<g>
		<path d="M2557.37,979.45c9.54,0,17.33-7.56,17.74-17h253.25c12.69,0,24.63,4.94,33.6,13.92l65.87,65.87
			c9.27,9.27,21.6,14.38,34.71,14.38H3000v-1.56h-37.46c-12.69,0-24.63-4.94-33.61-13.92l-65.87-65.87
			c-9.27-9.27-21.6-14.38-34.71-14.38h-253.25c-0.41-9.44-8.2-17-17.74-17c-9.8,0-17.78,7.98-17.78,17.78
			C2539.59,971.48,2547.56,979.45,2557.37,979.45z M2557.37,947.01c8.08,0,14.66,6.58,14.66,14.66c0,8.08-6.57,14.66-14.66,14.66
			s-14.66-6.58-14.66-14.66C2542.71,953.59,2549.28,947.01,2557.37,947.01z"/>
	</g>
	<g>
		<g>
			<path d="M2131,1249.95c7.06,0,12.8,5.74,12.8,12.8c0,7.06-5.74,12.8-12.8,12.8c-7.06,0-12.8-5.74-12.8-12.8
				C2118.2,1255.69,2123.94,1249.95,2131,1249.95z M2131,1274.54c6.51,0,11.8-5.29,11.8-11.8c0-6.5-5.29-11.8-11.8-11.8
				c-6.5,0-11.8,5.29-11.8,11.8C2119.2,1269.25,2124.5,1274.54,2131,1274.54z"/>
		</g>
		<g>
			<path d="M2131,1270.03c3.83,0,6.93-2.96,7.23-6.71h131.02c12.69,0,24.63,4.94,33.61,13.92l48.06,48.07
				c9.27,9.27,21.6,14.38,34.71,14.38H3000v-1.56h-614.38c-12.7,0-24.63-4.94-33.6-13.92l-48.07-48.07
				c-9.27-9.27-21.6-14.38-34.71-14.38h-131.06c-0.49-3.55-3.5-6.29-7.18-6.29c-4.02,0-7.28,3.26-7.28,7.28
				C2123.72,1266.77,2126.98,1270.03,2131,1270.03z"/>
		</g>
	</g>
	<g>
		<polygon class="st1" points="2317.82,752.46 2317.82,729.73 2298.41,741.1 		"/>
		<polygon class="st2" points="2338.95,752.46 2338.95,729.73 2319.54,741.1 		"/>
		<polygon class="st3" points="2360.08,752.46 2360.08,729.73 2340.67,741.1 		"/>
	</g>
	<g class="st4">
		<polygon points="2837.21,94.58 2837.21,71.94 2817.89,83.26 		"/>
		<polygon class="st4" points="2858.25,94.58 2858.25,71.94 2838.93,83.26 		"/>
		<polygon class="st1" points="2879.29,94.58 2879.29,71.94 2859.96,83.26 		"/>
	</g>
	<g class="st4">
		<polygon points="1675.15,1725.46 1675.15,1702.82 1655.83,1714.14 		"/>
		<polygon class="st4" points="1696.19,1725.46 1696.19,1702.82 1676.86,1714.14 		"/>
		<polygon class="st1" points="1717.22,1725.46 1717.22,1702.82 1697.9,1714.14 		"/>
	</g>
	<g class="st4">
		<polygon points="2297.65,208.33 2297.65,185.69 2278.33,197.01 		"/>
		<polygon class="st4" points="2318.69,208.33 2318.69,185.69 2299.36,197.01 		"/>
		<polygon class="st1" points="2339.72,208.33 2339.72,185.69 2320.4,197.01 		"/>
	</g>
	<g class="st4">
		<path d="M2671.71,1391.74c-2.81,0.03-5.09,0.91-6.86,2.63c-1.77,1.72-2.83,4.06-3.21,7.02c0.7-0.7,1.61-1.34,2.71-1.93
			c1.1-0.59,2.38-0.89,3.84-0.91c1.07-0.01,2.06,0.17,2.97,0.54c0.91,0.37,1.7,0.9,2.38,1.58c0.67,0.68,1.21,1.51,1.6,2.49
			c0.39,0.98,0.6,2.08,0.62,3.3c0.02,1.4-0.19,2.69-0.6,3.86c-0.42,1.17-1.01,2.16-1.76,2.99c-0.75,0.83-1.66,1.48-2.73,1.95
			c-1.07,0.47-2.22,0.72-3.47,0.73c-1.23,0.02-2.38-0.2-3.48-0.63c-1.09-0.43-2.05-1.11-2.88-2.03c-0.83-0.92-1.49-2.09-1.98-3.52
			c-0.49-1.42-0.75-3.1-0.77-5.04c-0.03-2.17,0.24-4.23,0.8-6.17c0.56-1.95,1.41-3.65,2.54-5.12c1.13-1.47,2.55-2.64,4.24-3.52
			c1.7-0.88,3.68-1.33,5.96-1.36c0.23,0,0.48,0,0.74,0.01c0.27,0.01,0.51,0.03,0.71,0.05l0.04,3.14c-0.2-0.02-0.43-0.04-0.69-0.05
			C2672.18,1391.74,2671.94,1391.74,2671.71,1391.74z M2667.36,1401.44c-1.12,0.01-2.17,0.29-3.15,0.84
			c-0.97,0.55-1.84,1.27-2.59,2.18l0.01,0.84c0.04,1.2,0.21,2.27,0.52,3.21c0.3,0.94,0.71,1.73,1.22,2.38
			c0.51,0.64,1.1,1.14,1.78,1.47c0.68,0.34,1.4,0.5,2.17,0.49c0.76-0.01,1.46-0.16,2.08-0.47c0.62-0.3,1.15-0.72,1.59-1.24
			c0.44-0.53,0.78-1.15,1.01-1.87c0.23-0.72,0.35-1.5,0.34-2.34c-0.02-1.66-0.48-2.99-1.39-4
			C2670.03,1401.92,2668.83,1401.42,2667.36,1401.44z"/>
		<path d="M2685.98,1415.29c-0.04-2.93,0.13-5.54,0.5-7.82c0.37-2.28,0.91-4.35,1.64-6.22c0.73-1.87,1.64-3.59,2.75-5.14
			c1.1-1.56,2.37-3.09,3.81-4.58l-12.9,0.16l-0.04-3.14l16.99-0.21l0.03,2.76c-1.74,1.73-3.19,3.41-4.34,5.03
			c-1.15,1.62-2.08,3.36-2.77,5.2c-0.69,1.85-1.18,3.89-1.45,6.12c-0.28,2.24-0.4,4.84-0.36,7.79L2685.98,1415.29z"/>
		<path d="M2712.66,1387.71c1.48-0.02,2.8,0.28,3.95,0.89c1.16,0.61,2.12,1.51,2.9,2.68c0.78,1.18,1.38,2.63,1.79,4.34
			c0.42,1.72,0.64,3.67,0.67,5.87c0.06,4.44-0.69,7.86-2.25,10.27c-1.55,2.41-3.82,3.63-6.81,3.66c-2.98,0.04-5.27-1.15-6.86-3.55
			c-1.59-2.4-2.41-5.81-2.46-10.23c-0.05-4.44,0.69-7.86,2.25-10.27C2707.4,1388.97,2709.67,1387.75,2712.66,1387.71z
			 M2712.66,1390.85c-0.84,0.01-1.6,0.21-2.29,0.58c-0.68,0.38-1.27,0.99-1.74,1.82c-0.48,0.83-0.83,1.93-1.07,3.28
			c-0.24,1.35-0.35,3.03-0.32,5.02c0.04,3.55,0.56,6.23,1.55,8.04c0.99,1.81,2.37,2.71,4.13,2.69c0.84-0.01,1.6-0.21,2.29-0.58
			c0.68-0.38,1.26-0.99,1.74-1.82c0.47-0.83,0.83-1.93,1.07-3.29c0.24-1.35,0.35-3.03,0.32-5.02c-0.05-3.55-0.56-6.23-1.56-8.04
			C2715.79,1391.72,2714.42,1390.83,2712.66,1390.85z"/>
		<path d="M2741.7,1408.9l0.07,5.7l-3.44,0.04l-0.07-5.7l-11.45,0.14l-0.03-2.75l7.77-18.7l3,1.23l-7.02,17.04l7.69-0.1l-0.09-7.62
			l3.44-0.04l0.09,7.62l3.18-0.04l0.04,3.14L2741.7,1408.9z"/>
		<path d="M2754.87,1414.44c-0.04-2.93,0.13-5.54,0.5-7.82c0.37-2.27,0.91-4.35,1.65-6.22c0.73-1.87,1.64-3.59,2.75-5.14
			c1.1-1.56,2.37-3.08,3.81-4.58l-12.9,0.16l-0.04-3.14l16.99-0.21l0.03,2.75c-1.74,1.73-3.19,3.41-4.34,5.03
			c-1.15,1.62-2.08,3.36-2.77,5.2c-0.69,1.85-1.18,3.89-1.45,6.12c-0.28,2.24-0.4,4.83-0.36,7.79L2754.87,1414.44z"/>
		<path d="M2781.55,1386.85c1.48-0.02,2.8,0.28,3.95,0.89c1.16,0.61,2.12,1.5,2.91,2.68c0.78,1.18,1.38,2.62,1.8,4.34
			c0.42,1.72,0.64,3.67,0.67,5.87c0.05,4.44-0.69,7.86-2.25,10.27c-1.55,2.4-3.82,3.63-6.81,3.66c-2.98,0.04-5.27-1.15-6.86-3.55
			c-1.59-2.4-2.41-5.81-2.46-10.23c-0.05-4.44,0.69-7.86,2.25-10.27C2776.29,1388.11,2778.56,1386.89,2781.55,1386.85z
			 M2781.54,1389.99c-0.84,0.01-1.6,0.21-2.29,0.58c-0.68,0.38-1.27,0.99-1.74,1.82c-0.48,0.83-0.83,1.93-1.07,3.29
			c-0.24,1.36-0.35,3.03-0.32,5.02c0.04,3.55,0.56,6.23,1.55,8.04c0.99,1.81,2.37,2.71,4.13,2.69c0.84-0.01,1.61-0.21,2.29-0.58
			c0.68-0.38,1.26-0.98,1.74-1.82c0.47-0.83,0.83-1.93,1.07-3.29c0.24-1.35,0.35-3.03,0.32-5.02c-0.04-3.55-0.56-6.23-1.56-8.04
			C2784.68,1390.87,2783.31,1389.97,2781.54,1389.99z"/>
	</g>
	<g class="st4">
		<path d="M2621.76,409.34c1.53,1.61,3.24,2.41,5.13,2.41c0.79,0,1.54-0.2,2.26-0.59c0.71-0.4,1.34-1,1.87-1.82
			c0.54-0.82,0.96-1.87,1.28-3.16c0.32-1.29,0.48-2.83,0.48-4.61c-0.79,0.74-1.67,1.35-2.62,1.82c-0.96,0.47-2.01,0.71-3.16,0.71
			c-1.02,0-2-0.17-2.95-0.52c-0.94-0.34-1.79-0.86-2.53-1.55c-0.74-0.69-1.33-1.54-1.78-2.56c-0.45-1.02-0.67-2.21-0.67-3.56
			c0-1.2,0.21-2.33,0.63-3.39c0.42-1.06,1.01-1.98,1.76-2.77c0.75-0.79,1.66-1.42,2.72-1.88c1.06-0.46,2.24-0.69,3.54-0.69
			c1.33,0,2.46,0.2,3.41,0.61c0.94,0.41,1.74,0.94,2.37,1.61c0.46,0.49,0.86,1.02,1.21,1.61c0.34,0.59,0.64,1.3,0.88,2.14
			c0.24,0.84,0.42,1.85,0.54,3.02c0.11,1.17,0.17,2.59,0.17,4.25c0,2.55-0.24,4.74-0.73,6.56c-0.49,1.83-1.16,3.32-2.03,4.5
			c-0.87,1.17-1.88,2.03-3.04,2.58c-1.16,0.55-2.43,0.82-3.81,0.82c-1.48,0-2.81-0.26-3.98-0.78c-1.17-0.52-2.25-1.26-3.21-2.2
			L2621.76,409.34z M2627.57,401.27c0.97,0,1.91-0.24,2.81-0.73c0.9-0.48,1.7-1.07,2.39-1.76v-1.15c0-2.42-0.47-4.26-1.4-5.51
			c-0.93-1.25-2.19-1.88-3.77-1.88c-0.74,0-1.42,0.13-2.05,0.4c-0.62,0.27-1.17,0.64-1.65,1.11c-0.47,0.47-0.84,1.05-1.11,1.72
			c-0.27,0.68-0.4,1.43-0.4,2.28c0,0.87,0.14,1.64,0.42,2.32c0.28,0.68,0.66,1.25,1.13,1.72c0.47,0.47,1.02,0.84,1.65,1.09
			C2626.23,401.14,2626.89,401.27,2627.57,401.27z"/>
		<path d="M2649.47,414.89c-1.68,0-3.13-0.22-4.34-0.67c-1.21-0.45-2.25-0.99-3.12-1.63l1.57-2.87c0.72,0.54,1.54,1.01,2.47,1.42
			c0.93,0.41,2.09,0.61,3.46,0.61c1.68,0,3.02-0.44,4-1.32c0.98-0.88,1.47-2,1.47-3.35c0-0.69-0.14-1.35-0.42-1.99
			c-0.28-0.64-0.72-1.19-1.32-1.66c-0.6-0.47-1.35-0.85-2.26-1.13c-0.91-0.28-1.98-0.42-3.23-0.42h-2.14v-2.79h1.99
			c1.12,0,2.11-0.13,2.95-0.4c0.84-0.27,1.54-0.63,2.09-1.09c0.55-0.46,0.96-0.98,1.22-1.55c0.27-0.57,0.4-1.17,0.4-1.78
			c0-1.2-0.45-2.17-1.36-2.91c-0.91-0.74-2.02-1.11-3.35-1.11c-1.22,0-2.3,0.2-3.21,0.59c-0.92,0.4-1.67,0.84-2.26,1.32l-1.42-2.72
			c0.77-0.51,1.75-1.01,2.95-1.51c1.2-0.5,2.6-0.75,4.21-0.75c1.25,0,2.37,0.18,3.35,0.54c0.98,0.36,1.81,0.84,2.49,1.45
			c0.67,0.61,1.19,1.32,1.55,2.12c0.36,0.8,0.54,1.64,0.54,2.51c0,1.53-0.38,2.8-1.13,3.81c-0.75,1.01-1.82,1.84-3.2,2.51
			c1.61,0.61,2.86,1.5,3.77,2.68c0.91,1.17,1.36,2.56,1.36,4.17c0,1-0.19,1.97-0.56,2.93c-0.37,0.96-0.93,1.8-1.67,2.54
			c-0.74,0.74-1.68,1.33-2.83,1.78C2652.34,414.67,2651,414.89,2649.47,414.89z"/>
		<path d="M2674.04,387.18c1.48,0,2.79,0.31,3.94,0.94c1.15,0.63,2.11,1.53,2.87,2.72c0.77,1.19,1.35,2.64,1.74,4.36
			c0.4,1.72,0.59,3.68,0.59,5.87c0,4.44-0.79,7.85-2.37,10.24c-1.58,2.39-3.87,3.58-6.85,3.58c-2.99,0-5.26-1.21-6.81-3.64
			c-1.56-2.42-2.33-5.84-2.33-10.26c0-4.44,0.79-7.85,2.37-10.24C2668.77,388.37,2671.05,387.18,2674.04,387.18z M2674,390.32
			c-0.84,0-1.61,0.19-2.3,0.56c-0.69,0.37-1.28,0.97-1.76,1.8c-0.48,0.83-0.85,1.92-1.11,3.27c-0.26,1.35-0.38,3.02-0.38,5.01
			c0,3.55,0.48,6.23,1.45,8.06c0.97,1.82,2.33,2.74,4.09,2.74c0.84,0,1.61-0.19,2.3-0.56c0.69-0.37,1.27-0.97,1.76-1.8
			c0.48-0.83,0.85-1.92,1.11-3.27c0.25-1.35,0.38-3.02,0.38-5.01c0-3.55-0.48-6.23-1.45-8.06
			C2677.12,391.23,2675.76,390.32,2674,390.32z"/>
		<path d="M2693.25,400c-1.38-0.74-2.43-1.6-3.14-2.58c-0.71-0.98-1.07-2.2-1.07-3.66c0-0.97,0.2-1.86,0.59-2.66
			c0.4-0.8,0.94-1.5,1.65-2.08c0.7-0.59,1.53-1.04,2.49-1.36c0.96-0.32,1.98-0.48,3.08-0.48c1.17,0,2.25,0.17,3.23,0.5
			c0.98,0.33,1.82,0.8,2.53,1.4c0.7,0.6,1.25,1.29,1.65,2.09c0.39,0.79,0.59,1.65,0.59,2.56c0,1.56-0.4,2.82-1.19,3.79
			c-0.79,0.97-1.85,1.79-3.18,2.45c1.89,0.82,3.33,1.81,4.32,2.97c1,1.16,1.49,2.58,1.49,4.27c0,1.15-0.23,2.2-0.69,3.16
			c-0.46,0.96-1.1,1.77-1.91,2.43c-0.81,0.66-1.79,1.18-2.91,1.55c-1.12,0.37-2.33,0.55-3.63,0.55c-1.45,0-2.77-0.19-3.96-0.57
			c-1.19-0.38-2.19-0.91-3-1.59c-0.82-0.68-1.45-1.47-1.9-2.37c-0.45-0.91-0.67-1.88-0.67-2.93c0-1.69,0.45-3.13,1.34-4.35
			C2689.86,401.87,2691.29,400.85,2693.25,400z M2702.78,407.27c0-1.22-0.54-2.32-1.63-3.29c-1.09-0.97-2.58-1.8-4.5-2.49
			c-0.74,0.18-1.44,0.43-2.1,0.75c-0.67,0.32-1.24,0.7-1.74,1.15c-0.5,0.45-0.9,0.96-1.21,1.53c-0.3,0.58-0.46,1.21-0.46,1.89
			c0,0.71,0.15,1.38,0.46,1.99c0.31,0.61,0.73,1.14,1.26,1.59c0.54,0.45,1.17,0.8,1.91,1.05c0.74,0.26,1.54,0.38,2.41,0.38
			c1.63,0,2.97-0.42,4.02-1.26C2702.26,409.72,2702.78,408.63,2702.78,407.27z M2692.37,393.69c0,1.12,0.45,2.13,1.34,3
			c0.89,0.88,2.1,1.55,3.64,2.01c0.56-0.18,1.09-0.42,1.59-0.73c0.5-0.3,0.94-0.65,1.32-1.03c0.38-0.38,0.69-0.82,0.92-1.3
			c0.23-0.48,0.34-1.01,0.34-1.57c0-0.59-0.12-1.13-0.36-1.63c-0.24-0.5-0.58-0.93-1-1.28c-0.42-0.36-0.91-0.64-1.47-0.84
			c-0.56-0.2-1.17-0.3-1.84-0.3c-1.3,0-2.37,0.34-3.21,1.01C2692.79,391.7,2692.37,392.59,2692.37,393.69z"/>
		<path d="M2716.22,400c-1.38-0.74-2.43-1.6-3.14-2.58c-0.71-0.98-1.07-2.2-1.07-3.66c0-0.97,0.2-1.86,0.59-2.66
			c0.4-0.8,0.94-1.5,1.65-2.08c0.7-0.59,1.53-1.04,2.49-1.36c0.96-0.32,1.98-0.48,3.08-0.48c1.17,0,2.25,0.17,3.23,0.5
			c0.98,0.33,1.82,0.8,2.53,1.4c0.7,0.6,1.25,1.29,1.65,2.09c0.39,0.79,0.59,1.65,0.59,2.56c0,1.56-0.4,2.82-1.18,3.79
			c-0.79,0.97-1.85,1.79-3.18,2.45c1.89,0.82,3.33,1.81,4.32,2.97c1,1.16,1.49,2.58,1.49,4.27c0,1.15-0.23,2.2-0.69,3.16
			c-0.46,0.96-1.1,1.77-1.91,2.43c-0.82,0.66-1.79,1.18-2.91,1.55c-1.12,0.37-2.33,0.55-3.63,0.55c-1.45,0-2.77-0.19-3.96-0.57
			c-1.19-0.38-2.19-0.91-3-1.59c-0.82-0.68-1.45-1.47-1.9-2.37c-0.45-0.91-0.67-1.88-0.67-2.93c0-1.69,0.45-3.13,1.34-4.35
			C2712.82,401.87,2714.25,400.85,2716.22,400z M2725.74,407.27c0-1.22-0.54-2.32-1.63-3.29c-1.09-0.97-2.58-1.8-4.5-2.49
			c-0.74,0.18-1.44,0.43-2.1,0.75c-0.67,0.32-1.24,0.7-1.74,1.15c-0.5,0.45-0.9,0.96-1.2,1.53c-0.31,0.58-0.46,1.21-0.46,1.89
			c0,0.71,0.15,1.38,0.46,1.99c0.31,0.61,0.73,1.14,1.26,1.59c0.54,0.45,1.17,0.8,1.91,1.05c0.74,0.26,1.54,0.38,2.41,0.38
			c1.63,0,2.97-0.42,4.02-1.26C2725.22,409.72,2725.74,408.63,2725.74,407.27z M2715.34,393.69c0,1.12,0.45,2.13,1.34,3
			c0.89,0.88,2.1,1.55,3.64,2.01c0.56-0.18,1.09-0.42,1.59-0.73c0.5-0.3,0.94-0.65,1.32-1.03c0.38-0.38,0.69-0.82,0.92-1.3
			c0.23-0.48,0.34-1.01,0.34-1.57c0-0.59-0.12-1.13-0.36-1.63c-0.24-0.5-0.57-0.93-1-1.28c-0.42-0.36-0.91-0.64-1.47-0.84
			c-0.56-0.2-1.17-0.3-1.84-0.3c-1.3,0-2.37,0.34-3.21,1.01C2715.76,391.7,2715.34,392.59,2715.34,393.69z"/>
		<path d="M2745.84,387.64v23.73h4.56v3.06h-13.47v-3.06h5.47v-19.33l-5.13,3.87l-1.88-2.56l7.92-5.7H2745.84z"/>
	</g>
	<g class="st4">
		<path d="M1309.29,822.12c-1.38-0.74-2.43-1.6-3.14-2.58c-0.72-0.98-1.07-2.2-1.08-3.65c0-0.97,0.19-1.86,0.59-2.66
			c0.4-0.8,0.94-1.5,1.64-2.09c0.7-0.59,1.53-1.04,2.48-1.36c0.96-0.32,1.98-0.48,3.08-0.48c1.17,0,2.25,0.16,3.23,0.49
			c0.98,0.33,1.82,0.8,2.53,1.39c0.7,0.6,1.25,1.29,1.65,2.08c0.4,0.79,0.6,1.65,0.6,2.56c0,1.56-0.39,2.82-1.18,3.79
			c-0.79,0.97-1.85,1.79-3.17,2.46c1.89,0.82,3.33,1.8,4.33,2.96c1,1.16,1.5,2.58,1.5,4.27c0,1.15-0.23,2.2-0.69,3.16
			c-0.46,0.96-1.09,1.77-1.91,2.43c-0.81,0.66-1.78,1.18-2.91,1.56c-1.12,0.37-2.33,0.56-3.63,0.56c-1.45,0-2.78-0.19-3.96-0.57
			c-1.19-0.38-2.19-0.91-3.01-1.58c-0.82-0.67-1.45-1.46-1.9-2.37c-0.45-0.91-0.67-1.88-0.67-2.93c0-1.69,0.44-3.13,1.33-4.35
			C1305.9,824,1307.33,822.97,1309.29,822.12z M1318.83,829.38c0-1.22-0.55-2.32-1.63-3.29c-1.09-0.97-2.59-1.79-4.5-2.48
			c-0.74,0.18-1.44,0.43-2.1,0.75c-0.66,0.32-1.24,0.7-1.74,1.15c-0.5,0.45-0.9,0.96-1.2,1.53c-0.31,0.57-0.46,1.21-0.46,1.89
			c0,0.72,0.16,1.38,0.46,1.99c0.31,0.61,0.73,1.14,1.27,1.59c0.54,0.45,1.17,0.8,1.91,1.05c0.74,0.26,1.55,0.38,2.41,0.38
			c1.63,0,2.97-0.43,4.02-1.27C1318.31,831.83,1318.83,830.73,1318.83,829.38z M1308.4,815.81c0,1.12,0.45,2.12,1.34,3
			c0.9,0.88,2.11,1.55,3.64,2c0.56-0.18,1.09-0.42,1.59-0.73c0.5-0.31,0.94-0.65,1.32-1.03c0.38-0.38,0.69-0.82,0.92-1.3
			c0.23-0.48,0.34-1.01,0.34-1.57c0-0.59-0.12-1.13-0.37-1.63c-0.24-0.5-0.58-0.92-1-1.28c-0.42-0.36-0.91-0.64-1.47-0.84
			c-0.56-0.2-1.18-0.3-1.83-0.3c-1.3,0-2.37,0.34-3.22,1.02C1308.82,813.83,1308.4,814.71,1308.4,815.81z"/>
		<path d="M1327.88,836.52c-0.08-0.46-0.12-0.93-0.12-1.41c0-1.63,0.3-3.11,0.89-4.44c0.6-1.33,1.34-2.53,2.23-3.62
			c0.89-1.09,1.85-2.09,2.89-3.03c1.03-0.93,1.99-1.83,2.89-2.68c0.89-0.86,1.64-1.71,2.23-2.57c0.6-0.86,0.9-1.77,0.9-2.74
			c0-1.07-0.4-1.96-1.19-2.66c-0.79-0.7-1.81-1.05-3.06-1.05c-1.07,0-2.05,0.21-2.93,0.64c-0.88,0.42-1.7,0.99-2.47,1.71l-1.92-2.33
			c1.02-0.92,2.15-1.66,3.38-2.22c1.24-0.56,2.67-0.85,4.3-0.85c1.12,0,2.15,0.16,3.08,0.49c0.93,0.33,1.72,0.8,2.38,1.39
			c0.65,0.6,1.16,1.29,1.52,2.08c0.36,0.79,0.54,1.65,0.54,2.56c0,1.22-0.27,2.36-0.82,3.39c-0.55,1.03-1.23,2.02-2.06,2.95
			c-0.83,0.93-1.73,1.83-2.71,2.68c-0.98,0.86-1.9,1.73-2.77,2.63c-0.86,0.9-1.62,1.83-2.27,2.8c-0.65,0.97-1.04,2.02-1.16,3.14
			l11.79-0.02l0.01,3.14L1327.88,836.52z"/>
		<path d="M1363.89,812.74c-2.81,0-5.1,0.86-6.89,2.56c-1.78,1.7-2.88,4.03-3.28,6.99c0.71-0.69,1.62-1.32,2.73-1.9
			c1.11-0.58,2.39-0.86,3.85-0.87c1.07,0,2.06,0.19,2.97,0.57c0.91,0.38,1.69,0.92,2.36,1.6c0.66,0.69,1.19,1.52,1.57,2.5
			c0.38,0.98,0.58,2.09,0.58,3.31c0,1.4-0.21,2.69-0.64,3.85c-0.43,1.16-1.03,2.15-1.8,2.97c-0.76,0.82-1.68,1.46-2.75,1.92
			c-1.07,0.46-2.23,0.69-3.48,0.69c-1.23,0-2.38-0.22-3.47-0.66c-1.08-0.45-2.04-1.13-2.85-2.06c-0.82-0.93-1.46-2.11-1.94-3.54
			c-0.47-1.43-0.71-3.11-0.71-5.05c0-2.17,0.29-4.22,0.87-6.16c0.58-1.94,1.45-3.64,2.59-5.1c1.15-1.46,2.57-2.61,4.28-3.47
			c1.7-0.86,3.69-1.29,5.97-1.29c0.23,0,0.48,0.01,0.74,0.02c0.27,0.01,0.5,0.03,0.71,0.06l0,3.14c-0.2-0.02-0.43-0.04-0.69-0.06
			C1364.36,812.74,1364.12,812.74,1363.89,812.74z M1359.43,822.39c-1.12,0-2.17,0.27-3.16,0.81c-0.98,0.54-1.85,1.25-2.62,2.15
			l0,0.84c0.03,1.2,0.19,2.27,0.48,3.21c0.3,0.95,0.69,1.74,1.19,2.39c0.5,0.65,1.09,1.15,1.76,1.49c0.68,0.34,1.4,0.52,2.17,0.51
			c0.76,0,1.46-0.15,2.08-0.44c0.63-0.29,1.16-0.7,1.61-1.23c0.45-0.52,0.79-1.14,1.03-1.86c0.24-0.71,0.36-1.49,0.36-2.33
			c0-1.66-0.45-3-1.35-4.02C1362.1,822.9,1360.91,822.39,1359.43,822.39z"/>
		<path d="M1373.8,836.45c-0.08-0.46-0.12-0.93-0.12-1.42c0-1.63,0.3-3.11,0.89-4.44c0.6-1.33,1.34-2.54,2.23-3.62
			c0.89-1.08,1.85-2.09,2.89-3.03c1.03-0.93,1.99-1.83,2.89-2.68c0.89-0.86,1.64-1.71,2.23-2.57c0.6-0.86,0.9-1.77,0.9-2.74
			c0-1.07-0.4-1.96-1.19-2.66c-0.79-0.7-1.81-1.05-3.06-1.05c-1.07,0-2.05,0.21-2.93,0.64c-0.88,0.42-1.7,0.99-2.46,1.71l-1.92-2.33
			c1.02-0.92,2.15-1.66,3.39-2.22c1.24-0.57,2.67-0.85,4.3-0.85c1.12,0,2.15,0.16,3.08,0.49c0.93,0.33,1.72,0.8,2.38,1.39
			c0.65,0.6,1.16,1.29,1.52,2.08c0.36,0.79,0.54,1.65,0.54,2.56c0,1.23-0.27,2.35-0.82,3.39c-0.55,1.03-1.23,2.02-2.06,2.95
			c-0.83,0.93-1.73,1.83-2.72,2.68c-0.98,0.86-1.9,1.73-2.77,2.63c-0.86,0.9-1.62,1.83-2.27,2.8c-0.65,0.97-1.04,2.02-1.16,3.14
			l11.79-0.02l0.01,3.14L1373.8,836.45z"/>
		<path d="M1409.82,812.66c-2.81,0.01-5.1,0.86-6.89,2.56c-1.78,1.7-2.88,4.03-3.28,6.99c0.71-0.69,1.62-1.32,2.74-1.9
			c1.11-0.58,2.39-0.87,3.85-0.87c1.07,0,2.06,0.19,2.97,0.57c0.91,0.38,1.69,0.92,2.36,1.6c0.66,0.69,1.19,1.52,1.57,2.5
			c0.38,0.98,0.58,2.09,0.58,3.31c0,1.4-0.21,2.69-0.64,3.85c-0.43,1.16-1.03,2.15-1.8,2.97c-0.76,0.82-1.68,1.46-2.75,1.92
			c-1.07,0.46-2.23,0.69-3.48,0.69c-1.23,0-2.38-0.22-3.47-0.66c-1.08-0.44-2.04-1.13-2.85-2.06c-0.82-0.93-1.46-2.11-1.94-3.54
			c-0.47-1.43-0.71-3.11-0.72-5.05c0-2.17,0.29-4.22,0.87-6.16c0.58-1.94,1.45-3.64,2.59-5.09c1.15-1.46,2.57-2.61,4.28-3.47
			c1.7-0.86,3.69-1.29,5.97-1.29c0.23,0,0.48,0.01,0.75,0.02c0.27,0.01,0.5,0.03,0.71,0.06l0.01,3.14c-0.2-0.02-0.43-0.04-0.69-0.06
			C1410.29,812.67,1410.05,812.66,1409.82,812.66z M1405.36,822.32c-1.12,0-2.17,0.27-3.16,0.81c-0.98,0.54-1.86,1.25-2.62,2.15
			l0,0.84c0.03,1.2,0.19,2.27,0.48,3.21c0.29,0.94,0.69,1.74,1.19,2.39c0.5,0.65,1.09,1.15,1.76,1.49c0.68,0.34,1.4,0.51,2.17,0.51
			c0.76,0,1.46-0.15,2.08-0.44c0.63-0.29,1.16-0.7,1.61-1.23c0.45-0.52,0.79-1.14,1.03-1.86c0.24-0.71,0.36-1.49,0.36-2.34
			c0-1.66-0.45-3-1.35-4.02C1408.03,822.82,1406.84,822.31,1405.36,822.32z"/>
		<path d="M1421.52,831.28c1.53,1.61,3.24,2.41,5.13,2.41c0.79,0,1.55-0.2,2.26-0.6c0.72-0.4,1.34-1,1.88-1.82
			c0.53-0.82,0.96-1.87,1.28-3.16c0.32-1.29,0.47-2.83,0.47-4.61c-0.79,0.74-1.67,1.35-2.62,1.82c-0.95,0.47-2.01,0.71-3.16,0.71
			c-1.02,0-2-0.17-2.95-0.51c-0.95-0.34-1.79-0.86-2.53-1.55c-0.74-0.69-1.34-1.54-1.78-2.56c-0.45-1.02-0.67-2.2-0.67-3.56
			c0-1.2,0.2-2.33,0.62-3.39c0.42-1.06,1.01-1.98,1.76-2.78c0.75-0.79,1.65-1.42,2.71-1.88c1.06-0.46,2.24-0.69,3.54-0.69
			c1.33,0,2.46,0.2,3.4,0.61c0.95,0.41,1.74,0.94,2.38,1.6c0.46,0.48,0.86,1.02,1.21,1.6c0.35,0.59,0.64,1.3,0.89,2.14
			c0.24,0.84,0.42,1.85,0.54,3.02c0.12,1.17,0.17,2.59,0.18,4.25c0,2.55-0.23,4.74-0.72,6.57c-0.48,1.83-1.16,3.32-2.02,4.5
			c-0.87,1.17-1.88,2.04-3.04,2.59c-1.16,0.55-2.43,0.83-3.81,0.83c-1.48,0-2.81-0.26-3.98-0.78c-1.17-0.52-2.25-1.25-3.22-2.2
			L1421.52,831.28z M1427.33,823.2c0.97,0,1.91-0.25,2.81-0.73c0.9-0.49,1.7-1.07,2.39-1.76l0-1.15c0-2.42-0.47-4.26-1.41-5.51
			c-0.93-1.25-2.19-1.87-3.77-1.87c-0.74,0-1.42,0.14-2.05,0.41c-0.63,0.27-1.17,0.64-1.65,1.11c-0.47,0.47-0.84,1.05-1.11,1.72
			c-0.27,0.68-0.4,1.44-0.4,2.28c0,0.87,0.14,1.64,0.42,2.32c0.28,0.68,0.66,1.25,1.13,1.72c0.47,0.47,1.02,0.84,1.65,1.09
			C1425.98,823.08,1426.64,823.2,1427.33,823.2z"/>
	</g>
	<g>
		<polygon class="st5" points="2907.96,1658.75 2907.96,1684.07 2886.34,1671.41 		"/>
		<polygon class="st4" points="2931.5,1658.75 2931.5,1684.07 2909.88,1671.41 		"/>
		<polygon class="st6" points="2955.03,1658.75 2955.03,1684.07 2933.41,1671.41 		"/>
	</g>
	<g>
		<polygon class="st5" points="1748.97,1158.35 1748.97,1183.67 1727.35,1171.01 		"/>
		<polygon class="st4" points="1772.51,1158.35 1772.51,1183.67 1750.89,1171.01 		"/>
		<polygon class="st6" points="1796.04,1158.35 1796.04,1183.67 1774.42,1171.01 		"/>
	</g>
	<g class="st4">
		<path d="M2611.2,1029.82l-0.02-4.36c-0.03-7.25-5.96-13.13-13.21-13.09l-1.61,0.01c-7.25,0.03-13.13,5.96-13.09,13.21l0.02,4.36
			c-4.38,0.7-7.74,4.52-7.72,9.08l0.08,17.36c0.02,5.04,4.16,9.14,9.2,9.11l25.14-0.12c5.03-0.02,9.14-4.16,9.11-9.2l-0.08-17.36
			C2618.98,1034.27,2615.58,1030.47,2611.2,1029.82z M2601.73,1056.66l-8.74,0.04l2.12-8.64c-1.77-0.82-3.01-2.61-3.02-4.7
			c-0.01-2.87,2.3-5.21,5.18-5.22c2.87-0.01,5.21,2.3,5.22,5.18c0.01,2.08-1.21,3.89-2.97,4.72L2601.73,1056.66z M2606.28,1029.74
			l-18.08,0.08l-0.02-4.26c-0.02-4.54,3.66-8.25,8.2-8.27l1.61-0.01c4.54-0.02,8.25,3.66,8.27,8.2L2606.28,1029.74z"/>
		<path d="M2611.2,1029.82l-0.02-4.36c-0.03-7.25-5.96-13.13-13.21-13.09l-1.61,0.01c-7.25,0.03-13.13,5.96-13.09,13.21l0.02,4.36
			c-4.38,0.7-7.74,4.52-7.72,9.08l0.08,17.36c0.02,5.04,4.16,9.14,9.2,9.11l25.14-0.12c5.03-0.02,9.14-4.16,9.11-9.2l-0.08-17.36
			C2618.98,1034.27,2615.58,1030.47,2611.2,1029.82z M2601.73,1056.66l-8.74,0.04l2.12-8.64c-1.77-0.82-3.01-2.61-3.02-4.7
			c-0.01-2.87,2.3-5.21,5.18-5.22c2.87-0.01,5.21,2.3,5.22,5.18c0.01,2.08-1.21,3.89-2.97,4.72L2601.73,1056.66z M2606.28,1029.74
			l-18.08,0.08l-0.02-4.26c-0.02-4.54,3.66-8.25,8.2-8.27l1.61-0.01c4.54-0.02,8.25,3.66,8.27,8.2L2606.28,1029.74z"/>
	</g>
	<g class="st4">
		<path d="M1959.21,736.07l-0.02-4.36c-0.03-7.25-5.96-13.13-13.21-13.09l-1.61,0.01c-7.25,0.03-13.13,5.96-13.09,13.21l0.02,4.36
			c-4.38,0.7-7.74,4.52-7.72,9.08l0.08,17.36c0.02,5.03,4.16,9.14,9.2,9.11l25.14-0.12c5.03-0.02,9.14-4.16,9.11-9.2l-0.08-17.36
			C1967,740.52,1963.6,736.72,1959.21,736.07z M1949.74,762.91l-8.74,0.04l2.12-8.64c-1.77-0.82-3.01-2.61-3.02-4.7
			c-0.01-2.87,2.3-5.21,5.18-5.22c2.87-0.01,5.21,2.3,5.22,5.18c0.01,2.08-1.21,3.89-2.97,4.72L1949.74,762.91z M1954.29,735.98
			l-18.08,0.08l-0.02-4.26c-0.02-4.54,3.66-8.25,8.2-8.27l1.61-0.01c4.54-0.02,8.25,3.66,8.27,8.2L1954.29,735.98z"/>
		<path d="M1959.21,736.07l-0.02-4.36c-0.03-7.25-5.96-13.13-13.21-13.09l-1.61,0.01c-7.25,0.03-13.13,5.96-13.09,13.21l0.02,4.36
			c-4.38,0.7-7.74,4.52-7.72,9.08l0.08,17.36c0.02,5.03,4.16,9.14,9.2,9.11l25.14-0.12c5.03-0.02,9.14-4.16,9.11-9.2l-0.08-17.36
			C1967,740.52,1963.6,736.72,1959.21,736.07z M1949.74,762.91l-8.74,0.04l2.12-8.64c-1.77-0.82-3.01-2.61-3.02-4.7
			c-0.01-2.87,2.3-5.21,5.18-5.22c2.87-0.01,5.21,2.3,5.22,5.18c0.01,2.08-1.21,3.89-2.97,4.72L1949.74,762.91z M1954.29,735.98
			l-18.08,0.08l-0.02-4.26c-0.02-4.54,3.66-8.25,8.2-8.27l1.61-0.01c4.54-0.02,8.25,3.66,8.27,8.2L1954.29,735.98z"/>
	</g>
	<g>
		<g>
			<path d="M3000,315.69h-466.36c-13.11,0-25.44,5.11-34.71,14.38l-65.87,65.87c-8.98,8.98-20.91,13.92-33.6,13.92h-164.17
				c-0.41-9.44-8.2-17-17.74-17c-9.8,0-17.78,7.98-17.78,17.78c0,9.8,7.98,17.78,17.78,17.78c9.54,0,17.33-7.56,17.74-17h164.17
				c13.11,0,25.44-5.11,34.71-14.38l65.87-65.87c8.98-8.98,20.91-13.92,33.61-13.92H3000V315.69z M2217.54,425.3
				c-8.08,0-14.66-6.57-14.66-14.66c0-8.08,6.57-14.66,14.66-14.66c8.08,0,14.66,6.58,14.66,14.66
				C2232.19,418.72,2225.62,425.3,2217.54,425.3z"/>
		</g>
		<g class="st4">
			<circle cx="2217.54" cy="410.64" r="9.61"/>
		</g>
	</g>
	<g>
		<g class="st4">
			<g>
				<path d="M2855.87,1252.82c7.83,0,14.22-6.25,14.47-14.02H3000v-1.56h-129.69c-0.56-7.49-6.81-13.42-14.44-13.42
					c-7.99,0-14.5,6.5-14.5,14.5C2841.37,1246.31,2847.88,1252.82,2855.87,1252.82z M2855.87,1225.38c7.13,0,12.94,5.8,12.94,12.94
					c0,7.13-5.8,12.94-12.94,12.94c-7.13,0-12.94-5.8-12.94-12.94C2842.93,1231.18,2848.74,1225.38,2855.87,1225.38z"/>
			</g>
		</g>
		<g class="st4">
			<g>
				<path d="M2855.87,1245.6c-4.02,0-7.28-3.26-7.28-7.28c0-4.02,3.26-7.28,7.28-7.28s7.28,3.26,7.28,7.28
					C2863.15,1242.34,2859.89,1245.6,2855.87,1245.6z"/>
			</g>
		</g>
	</g>
	<g>
		<path d="M2965.17,887.81c-7.83,0-14.22,6.25-14.47,14.02H2920h-693.17c-13.11,0-25.44,5.11-34.71,14.38l-65.87,65.87
			c-8.98,8.98-20.91,13.92-33.61,13.92h-98.83c-12.69,0-24.63-4.94-33.6-13.92c-8.98-8.98-13.92-20.91-13.92-33.61v-84.46
			c7.77-0.26,14.02-6.64,14.02-14.47c0-7.99-6.51-14.5-14.5-14.5c-7.99,0-14.5,6.5-14.5,14.5c0,7.63,5.93,13.89,13.42,14.44v84.49
			c0,13.11,5.11,25.44,14.38,34.71c9.27,9.27,21.6,14.38,34.71,14.38h98.83c13.11,0,25.44-5.11,34.71-14.38l65.87-65.87
			c8.98-8.98,20.91-13.92,33.6-13.92l723.9,0c0.56,7.49,6.81,13.42,14.44,13.42c8,0,14.5-6.5,14.5-14.5
			C2979.67,894.32,2973.17,887.81,2965.17,887.81z M1932.87,849.55c0-7.13,5.8-12.94,12.94-12.94c7.13,0,12.94,5.8,12.94,12.94
			s-5.8,12.94-12.94,12.94C1938.67,862.48,1932.87,856.68,1932.87,849.55z M2965.17,915.25c-7.13,0-12.94-5.8-12.94-12.94
			c0-7.13,5.8-12.94,12.94-12.94c7.13,0,12.94,5.8,12.94,12.94C2978.11,909.45,2972.31,915.25,2965.17,915.25z"/>
		<path d="M2965.17,895.03c-4.02,0-7.28,3.26-7.28,7.28c0,4.02,3.26,7.28,7.28,7.28c4.02,0,7.28-3.26,7.28-7.28
			C2972.46,898.29,2969.2,895.03,2965.17,895.03z"/>
		<path d="M1945.81,842.26c-4.02,0-7.28,3.26-7.28,7.28c0,4.02,3.26,7.28,7.28,7.28c4.02,0,7.28-3.26,7.28-7.28
			C1953.09,845.52,1949.83,842.26,1945.81,842.26z"/>
	</g>
	<g>
		<g>
			<path d="M3000,709.14h-471.61c-13.11,0-25.44,5.11-34.71,14.38l-65.87,65.87c-8.98,8.98-20.91,13.92-33.6,13.92h-164.17
				c-0.41-9.44-8.2-17-17.74-17c-9.8,0-17.78,7.98-17.78,17.78c0,9.8,7.98,17.78,17.78,17.78c9.54,0,17.33-7.56,17.74-17h164.17
				c13.11,0,25.44-5.11,34.71-14.38l65.87-65.87c8.98-8.98,20.91-13.92,33.61-13.92H3000V709.14z M2212.29,818.75
				c-8.08,0-14.66-6.58-14.66-14.66c0-8.08,6.58-14.66,14.66-14.66c8.08,0,14.66,6.58,14.66,14.66
				C2226.94,812.17,2220.37,818.75,2212.29,818.75z"/>
		</g>
		<g class="st4">
			<g>
				<path d="M2219.57,804.09c0,4.02-3.26,7.28-7.28,7.28c-4.02,0-7.28-3.26-7.28-7.28c0-4.02,3.26-7.28,7.28-7.28
					C2216.31,796.81,2219.57,800.07,2219.57,804.09z"/>
			</g>
		</g>
	</g>
	<g>
		<g>
			<path d="M3000,1453.82h-471.61c-13.11,0-25.44,5.11-34.71,14.38l-65.87,65.87c-8.98,8.98-20.91,13.92-33.6,13.92h-164.17
				c-0.41-9.44-8.2-17-17.74-17c-9.8,0-17.78,7.98-17.78,17.78s7.98,17.78,17.78,17.78c9.54,0,17.33-7.56,17.74-17h164.17
				c13.11,0,25.44-5.11,34.71-14.38l65.87-65.87c8.98-8.98,20.91-13.92,33.61-13.92H3000V1453.82z M2212.29,1563.43
				c-8.08,0-14.66-6.57-14.66-14.66c0-8.08,6.58-14.66,14.66-14.66c8.08,0,14.66,6.58,14.66,14.66
				C2226.94,1556.86,2220.37,1563.43,2212.29,1563.43z"/>
		</g>
		<g class="st4">
			<g>
				<path d="M2219.57,1548.77c0,4.02-3.26,7.28-7.28,7.28c-4.02,0-7.28-3.26-7.28-7.28c0-4.02,3.26-7.28,7.28-7.28
					C2216.31,1541.49,2219.57,1544.75,2219.57,1548.77z"/>
			</g>
		</g>
	</g>
	<g>
		<g>
			<path d="M2342.65,1209.59c0,9.8,7.98,17.78,17.78,17.78c9.54,0,17.33-7.56,17.74-17h307.25c13.11,0,25.44-5.11,34.71-14.38
				l65.87-65.87c8.98-8.98,20.91-13.92,33.61-13.92H3000v-1.56h-180.39c-13.11,0-25.44,5.11-34.71,14.38l-65.87,65.87
				c-8.98,8.98-20.91,13.92-33.6,13.92h-307.25c-0.41-9.44-8.2-17-17.74-17C2350.63,1191.81,2342.65,1199.79,2342.65,1209.59z
				 M2345.78,1209.59c0-8.08,6.58-14.66,14.66-14.66c8.08,0,14.66,6.57,14.66,14.66c0,8.08-6.57,14.66-14.66,14.66
				C2352.35,1224.25,2345.78,1217.68,2345.78,1209.59z"/>
		</g>
		<g class="st4">
			<g>
				<path d="M2367.72,1209.59c0,4.02-3.26,7.28-7.28,7.28c-4.02,0-7.28-3.26-7.28-7.28c0-4.02,3.26-7.28,7.28-7.28
					C2364.46,1202.31,2367.72,1205.57,2367.72,1209.59z"/>
			</g>
		</g>
	</g>
	<g>
		<g>
			<path d="M2542.43,1878.4c9.54,0,17.33-7.56,17.74-17h194.25c12.69,0,24.63,4.94,33.6,13.92l65.87,65.87
				c9.27,9.27,21.6,14.38,34.71,14.38H3000v-1.56h-111.39c-12.69,0-24.63-4.94-33.61-13.92l-65.87-65.87
				c-9.27-9.27-21.6-14.38-34.71-14.38h-194.25c-0.41-9.44-8.2-17-17.74-17c-9.8,0-17.78,7.98-17.78,17.78
				C2524.65,1870.42,2532.63,1878.4,2542.43,1878.4z M2542.43,1845.96c8.08,0,14.66,6.57,14.66,14.66c0,8.08-6.57,14.66-14.66,14.66
				c-8.08,0-14.66-6.57-14.66-14.66C2527.78,1852.54,2534.35,1845.96,2542.43,1845.96z"/>
		</g>
		<g class="st4">
			<g>
				<path d="M2535.15,1860.62c0-4.02,3.26-7.28,7.28-7.28c4.02,0,7.28,3.26,7.28,7.28c0,4.02-3.26,7.28-7.28,7.28
					C2538.41,1867.9,2535.15,1864.64,2535.15,1860.62z"/>
			</g>
		</g>
	</g>
	<g>
		<ellipse transform="matrix(0.9871 -0.1602 0.1602 0.9871 18.8762 477.7586)" cx="2972.77" cy="121.8" rx="9.61" ry="9.61"/>
		<path d="M2972.77,104.02c-9.54,0-17.33,7.56-17.74,17l-648.95-0.02c-12.69,0-24.63-4.94-33.6-13.92l-65.76-65.75
			c-9.27-9.27-21.6-14.38-34.71-14.38h-93.87c-13.11,0-25.44,5.11-34.71,14.38l-29.74,29.74c-2.46-2.2-5.69-3.55-9.25-3.55
			c-7.68,0-13.9,6.22-13.9,13.9s6.22,13.9,13.9,13.9s13.9-6.22,13.9-13.9c0-3.56-1.35-6.79-3.55-9.25l29.74-29.74
			c8.98-8.98,20.91-13.92,33.6-13.92h93.87c12.69,0,24.63,4.94,33.6,13.92l65.76,65.76c9.27,9.27,21.6,14.38,34.71,14.38
			l648.95,0.02c0.41,9.44,8.2,17,17.74,17c9.8,0,17.78-7.98,17.78-17.78C2990.55,111.99,2982.57,104.02,2972.77,104.02z
			 M2972.77,136.46c-8.08,0-14.66-6.57-14.66-14.66c0-8.08,6.57-14.66,14.66-14.66c8.08,0,14.66,6.58,14.66,14.66
			C2987.43,129.88,2980.85,136.46,2972.77,136.46z"/>
	</g>
	<g>
		<circle cx="2591.86" cy="212.36" r="9.61"/>
		<path d="M2574.12,211.58h-3.65v-0.01h-65.04c-13.11,0-25.44,5.11-34.71,14.38l-65.87,65.87c-8.98,8.98-20.91,13.92-33.6,13.92
			h-193.17c-0.41-9.44-8.2-17-17.74-17c-9.8,0-17.78,7.98-17.78,17.78c0,9.8,7.98,17.78,17.78,17.78c9.54,0,17.33-7.56,17.74-17
			h193.17c13.11,0,25.44-5.11,34.71-14.38l65.87-65.87c8.98-8.98,20.91-13.92,33.61-13.92h57.03v0.01l11.67,0
			c0.41,9.44,8.2,17,17.74,17c9.8,0,17.78-7.98,17.78-17.78c0-9.8-7.98-17.78-17.78-17.78
			C2582.32,194.58,2574.53,202.14,2574.12,211.58z M2160.32,321.18c-8.08,0-14.66-6.58-14.66-14.66c0-8.08,6.57-14.66,14.66-14.66
			c8.08,0,14.66,6.58,14.66,14.66C2174.98,314.61,2168.4,321.18,2160.32,321.18z M2606.52,212.36c0,8.08-6.58,14.66-14.66,14.66
			c-8.08,0-14.66-6.58-14.66-14.66c0-8.08,6.57-14.66,14.66-14.66C2599.94,197.71,2606.52,204.28,2606.52,212.36z"/>
	</g>
	<g>
		<path d="M2018.78,650.19c0-9.8-7.98-17.78-17.78-17.78c-9.54,0-17.33,7.56-17.74,17h-193.17c-12.69,0-24.63-4.94-33.6-13.92
			l-65.87-65.87c-9.27-9.27-21.6-14.38-34.71-14.38h-175.03v0l-11.67,0c-0.41-9.44-8.2-17-17.74-17c-9.8,0-17.78,7.98-17.78,17.78
			c0,9.8,7.98,17.78,17.78,17.78c9.54,0,17.33-7.56,17.74-17l2.65,0v0h184.04c12.69,0,24.63,4.94,33.61,13.92l65.87,65.87
			c9.27,9.27,21.6,14.38,34.71,14.38h193.17c0.41,9.44,8.2,17,17.74,17C2010.8,667.97,2018.78,659.99,2018.78,650.19z
			 M1451.46,570.67c-8.08,0-14.66-6.58-14.66-14.66c0-8.08,6.57-14.66,14.66-14.66c8.08,0,14.66,6.58,14.66,14.66
			C1466.12,564.1,1459.54,570.67,1451.46,570.67z M1986.34,650.19c0-8.08,6.57-14.66,14.66-14.66c8.08,0,14.66,6.58,14.66,14.66
			c0,8.08-6.57,14.66-14.66,14.66C1992.92,664.84,1986.34,658.27,1986.34,650.19z"/>
		<path d="M1451.46,546.41c-5.31,0-9.61,4.3-9.61,9.61s4.3,9.61,9.61,9.61c5.31,0,9.61-4.3,9.61-9.61S1456.77,546.41,1451.46,546.41
			z"/>
	</g>
	<g>
		<path d="M2582.82,1726.68c-9.54,0-17.33,7.56-17.74,17h-132.17c-13.11,0-25.44,5.11-34.71,14.38l-104.27,104.27
			c-8.98,8.98-20.91,13.92-33.61,13.92h-157.04v0l-2.65,0c-0.41-9.44-8.2-17-17.74-17c-9.8,0-17.78,7.98-17.78,17.78
			c0,9.8,7.98,17.78,17.78,17.78c9.54,0,17.33-7.56,17.74-17l11.67,0v0h148.03c13.11,0,25.44-5.11,34.71-14.38l104.27-104.27
			c8.97-8.98,20.91-13.92,33.6-13.92h132.17c0.41,9.44,8.2,17,17.74,17c9.8,0,17.78-7.98,17.78-17.78
			S2592.63,1726.68,2582.82,1726.68z M2097.55,1877.03c0,8.08-6.57,14.66-14.66,14.66s-14.66-6.57-14.66-14.66
			c0-8.08,6.57-14.66,14.66-14.66S2097.55,1868.95,2097.55,1877.03z M2582.82,1729.81c8.08,0,14.66,6.58,14.66,14.66
			c0,8.08-6.57,14.66-14.66,14.66s-14.66-6.57-14.66-14.66C2568.17,1736.38,2574.74,1729.81,2582.82,1729.81z"/>
		<path d="M2082.89,1886.64c-5.31,0-9.61-4.3-9.61-9.61s4.3-9.61,9.61-9.61s9.61,4.3,9.61,9.61S2088.2,1886.64,2082.89,1886.64z"/>
	</g>
	<g>
		<path class="st4" d="M1961.73,1526.43c3.75-3.75,3.75-9.83,0-13.59c-3.75-3.75-9.83-3.75-13.59,0c-3.75,3.75-3.75,9.83,0,13.59
			C1951.9,1530.18,1957.98,1530.18,1961.73,1526.43z"/>
		<path d="M1942.37,1532.21c6.93,6.93,18.21,6.93,25.15,0c6.75-6.75,6.91-17.6,0.52-24.57l35.97-35.99
			c8.97-8.98,20.91-13.92,33.6-13.92h253.25c0.41,9.44,8.2,17,17.74,17c9.8,0,17.78-7.98,17.78-17.78c0-9.8-7.98-17.78-17.78-17.78
			c-9.54,0-17.33,7.56-17.74,17h-253.25c-13.11,0-25.44,5.11-34.71,14.38l-35.97,35.99c-6.97-6.38-17.82-6.22-24.57,0.52
			C1935.43,1514,1935.43,1525.28,1942.37,1532.21z M2308.6,1442.3c8.08,0,14.66,6.57,14.66,14.66c0,8.08-6.57,14.66-14.66,14.66
			c-8.08,0-14.66-6.58-14.66-14.66C2293.94,1448.87,2300.52,1442.3,2308.6,1442.3z M1944.58,1509.27c5.71-5.71,15.01-5.71,20.73,0
			c5.71,5.71,5.71,15.01,0,20.73c-5.71,5.71-15.01,5.71-20.73,0C1938.86,1524.29,1938.86,1514.99,1944.58,1509.27z"/>
	</g>
	<g>
		<path class="st4" d="M2108.56,390.29c-3.75,3.75-3.75,9.83,0,13.59c3.75,3.75,9.83,3.75,13.59,0c3.75-3.75,3.75-9.83,0-13.59
			C2118.4,386.53,2112.32,386.53,2108.56,390.29z"/>
		<path d="M2127.93,384.51c-6.93-6.93-18.21-6.93-25.15,0c-6.75,6.75-6.91,17.6-0.52,24.57l-35.97,35.99
			c-8.98,8.98-20.91,13.92-33.6,13.92h-253.25c-0.41-9.44-8.2-17-17.74-17c-9.8,0-17.78,7.98-17.78,17.78
			c0,9.8,7.98,17.78,17.78,17.78c9.54,0,17.33-7.56,17.74-17h253.25c13.11,0,25.44-5.11,34.71-14.38l35.97-35.99
			c6.97,6.38,17.82,6.22,24.57-0.52C2134.86,402.72,2134.86,391.44,2127.93,384.51z M1761.7,474.42c-8.08,0-14.66-6.58-14.66-14.66
			c0-8.08,6.58-14.66,14.66-14.66c8.08,0,14.66,6.57,14.66,14.66C1776.35,467.84,1769.78,474.42,1761.7,474.42z M2125.72,407.44
			c-5.71,5.71-15.01,5.71-20.73,0c-5.71-5.71-5.71-15.01,0-20.73c5.71-5.71,15.01-5.71,20.73,0
			C2131.43,392.43,2131.43,401.73,2125.72,407.44z"/>
	</g>
	<g>
		<path class="st4" d="M1711.09,869.69c3.75-3.75,3.75-9.83,0-13.59c-3.75-3.75-9.83-3.75-13.59,0c-3.75,3.75-3.75,9.83,0,13.59
			C1701.26,873.44,1707.34,873.44,1711.09,869.69z"/>
		<path d="M1691.73,875.47c6.93,6.93,18.21,6.93,25.15,0c6.75-6.75,6.91-17.6,0.52-24.57l35.97-35.99
			c8.98-8.98,20.91-13.92,33.6-13.92h253.25c0.41,9.44,8.2,17,17.74,17c9.8,0,17.78-7.98,17.78-17.78c0-9.8-7.98-17.78-17.78-17.78
			c-9.54,0-17.33,7.56-17.74,17h-253.25c-13.11,0-25.44,5.11-34.71,14.38l-35.97,35.99c-6.97-6.38-17.82-6.22-24.57,0.52
			C1684.79,857.25,1684.79,868.53,1691.73,875.47z M2057.96,785.55c8.08,0,14.66,6.58,14.66,14.66c0,8.08-6.57,14.66-14.66,14.66
			c-8.08,0-14.66-6.58-14.66-14.66C2043.3,792.13,2049.88,785.55,2057.96,785.55z M1693.93,852.53c5.71-5.71,15.01-5.71,20.73,0
			c5.71,5.71,5.71,15.01,0,20.73c-5.71,5.71-15.01,5.71-20.73,0C1688.22,867.54,1688.22,858.24,1693.93,852.53z"/>
	</g>
	<g>
		<path class="st4" d="M2886.92,390.29c-3.75,3.75-3.75,9.83,0,13.59c3.75,3.75,9.83,3.75,13.59,0c3.75-3.75,3.75-9.83,0-13.59
			C2896.76,386.53,2890.68,386.53,2886.92,390.29z"/>
		<path d="M2906.29,384.51c-6.93-6.93-18.21-6.93-25.15,0c-6.75,6.75-6.91,17.6-0.52,24.57l-35.97,35.99
			c-8.97,8.98-20.91,13.92-33.6,13.92H2557.8c-0.41-9.44-8.2-17-17.74-17c-9.8,0-17.78,7.98-17.78,17.78
			c0,9.8,7.98,17.78,17.78,17.78c9.54,0,17.33-7.56,17.74-17h253.25c13.11,0,25.44-5.11,34.71-14.38l35.97-35.99
			c6.97,6.38,17.82,6.22,24.57-0.52C2913.22,402.72,2913.22,391.44,2906.29,384.51z M2540.06,474.42c-8.08,0-14.66-6.58-14.66-14.66
			c0-8.08,6.57-14.66,14.66-14.66c8.08,0,14.66,6.57,14.66,14.66C2554.71,467.84,2548.14,474.42,2540.06,474.42z M2904.08,407.44
			c-5.71,5.71-15.01,5.71-20.73,0c-5.71-5.71-5.71-15.01,0-20.73c5.71-5.71,15.01-5.71,20.73,0
			C2909.8,392.43,2909.8,401.73,2904.08,407.44z"/>
	</g>
	<g>
		<path d="M2252.07,1215.65c4.02,0,7.28-3.26,7.28-7.28c0-4.02-3.26-7.28-7.28-7.28c-4.02,0-7.28,3.26-7.28,7.28
			C2244.79,1212.39,2248.05,1215.65,2252.07,1215.65z"/>
		<path d="M1720.62,1320.34c9.54,0,17.33-7.56,17.74-17l11.67,0v-0.02h138.87c13.11,0,25.44-5.11,34.71-14.38l65.87-65.87
			c8.98-8.98,20.91-13.92,33.6-13.92h211.25c0.41,9.44,8.2,17,17.74,17c9.8,0,17.78-7.98,17.78-17.78c0-9.8-7.98-17.78-17.78-17.78
			c-9.54,0-17.33,7.56-17.74,17h-211.25c-13.11,0-25.44,5.11-34.71,14.38l-65.87,65.87c-8.98,8.98-20.91,13.92-33.61,13.92h-145.39
			v0.02l-5.15,0c-0.41-9.44-8.2-17-17.74-17c-9.8,0-17.78,7.98-17.78,17.78C1702.83,1312.36,1710.81,1320.34,1720.62,1320.34z
			 M2252.07,1193.71c8.08,0,14.66,6.57,14.66,14.66c0,8.08-6.58,14.66-14.66,14.66c-8.08,0-14.66-6.58-14.66-14.66
			C2237.42,1200.28,2243.99,1193.71,2252.07,1193.71z M1720.62,1287.9c8.08,0,14.66,6.58,14.66,14.66c0,8.08-6.57,14.66-14.66,14.66
			c-8.08,0-14.66-6.57-14.66-14.66C1705.96,1294.48,1712.53,1287.9,1720.62,1287.9z"/>
	</g>
	<g>
		<path d="M2512.23,1017.98c-3.56,0-6.79,1.35-9.25,3.55l-29.74-29.74c-9.27-9.27-21.6-14.38-34.71-14.38h-93.87
			c-13.11,0-25.44,5.11-34.71,14.38l-65.76,65.75c-8.98,8.98-20.91,13.92-33.6,13.92l-396.26,0.01c-0.41-9.44-8.2-17-17.74-17
			c-9.8,0-17.78,7.98-17.78,17.78c0,9.8,7.98,17.78,17.78,17.78c9.54,0,17.33-7.56,17.74-17l396.26-0.01
			c13.11,0,25.44-5.11,34.71-14.38l65.76-65.75c8.98-8.98,20.91-13.92,33.6-13.92h93.87c12.69,0,24.63,4.94,33.6,13.92l29.74,29.74
			c-2.2,2.46-3.55,5.69-3.55,9.25c0,7.68,6.22,13.9,13.9,13.9s13.9-6.22,13.9-13.9S2519.91,1017.98,2512.23,1017.98z
			 M1796.59,1086.91c-8.08,0-14.66-6.57-14.66-14.66c0-8.08,6.57-14.66,14.66-14.66c8.08,0,14.66,6.58,14.66,14.66
			C1811.25,1080.34,1804.67,1086.91,1796.59,1086.91z"/>
		<circle cx="1796.59" cy="1072.26" r="9.61"/>
	</g>
	<g class="st4">
		<g>
			<g>
				
					<rect x="2061.47" y="161.14" transform="matrix(-1 -1.224647e-16 1.224647e-16 -1 4135.6582 334.9966)" width="12.72" height="12.72"/>
			</g>
			<g>
				
					<rect x="2037.27" y="161.14" transform="matrix(-1 -1.224647e-16 1.224647e-16 -1 4087.252 334.9966)" width="12.72" height="12.72"/>
			</g>
			<g>
				<path d="M2012.42,160.49h14.01v14.01h-14.01V160.49z M2025.14,161.79h-11.43v11.42h11.43V161.79z"/>
			</g>
		</g>
		<g class="st4">
			<polygon points="2031.81,171.12 2031.81,171.66 2034.6,171.66 2034.6,176.76 2039.71,176.76 2039.71,179.56 2040.25,179.56 
				2040.25,176.76 2043.49,176.76 2043.49,179.56 2044.03,179.56 2044.03,176.76 2047.26,176.76 2047.26,179.56 2047.8,179.56 
				2047.8,176.76 2052.91,176.76 2052.91,171.66 2055.71,171.66 2055.71,171.12 2052.91,171.12 2052.91,167.88 2055.71,167.88 
				2055.71,167.34 2052.91,167.34 2052.91,164.1 2055.71,164.1 2055.71,163.57 2052.91,163.57 2052.91,158.46 2047.8,158.46 
				2047.8,155.66 2047.26,155.66 2047.26,158.46 2044.03,158.46 2044.03,155.66 2043.49,155.66 2043.49,158.46 2040.25,158.46 
				2040.25,155.66 2039.71,155.66 2039.71,158.46 2034.6,158.46 2034.6,163.57 2031.81,163.57 2031.81,164.1 2034.6,164.1 
				2034.6,167.34 2031.81,167.34 2031.81,167.88 2034.6,167.88 2034.6,171.12 			"/>
		</g>
	</g>
	<g class="st4">
		<g>
			<g>
				<rect x="2508.7" y="568.92" width="12.72" height="12.72"/>
			</g>
			<g>
				<rect x="2532.9" y="568.92" width="12.72" height="12.72"/>
			</g>
			<g>
				<path d="M2570.47,582.29h-14.01v-14.01h14.01V582.29z M2557.75,580.99h11.43v-11.42h-11.43V580.99z"/>
			</g>
		</g>
		<g class="st4">
			<polygon points="2551.08,571.66 2551.08,571.12 2548.28,571.12 2548.28,566.01 2543.18,566.01 2543.18,563.21 2542.64,563.21 
				2542.64,566.01 2539.4,566.01 2539.4,563.21 2538.86,563.21 2538.86,566.01 2535.62,566.01 2535.62,563.21 2535.08,563.21 
				2535.08,566.01 2529.98,566.01 2529.98,571.12 2527.18,571.12 2527.18,571.66 2529.98,571.66 2529.98,574.9 2527.18,574.9 
				2527.18,575.44 2529.98,575.44 2529.98,578.67 2527.18,578.67 2527.18,579.21 2529.98,579.21 2529.98,584.32 2535.08,584.32 
				2535.08,587.12 2535.62,587.12 2535.62,584.32 2538.86,584.32 2538.86,587.12 2539.4,587.12 2539.4,584.32 2542.64,584.32 
				2542.64,587.12 2543.18,587.12 2543.18,584.32 2548.28,584.32 2548.28,579.21 2551.08,579.21 2551.08,578.67 2548.28,578.67 
				2548.28,575.44 2551.08,575.44 2551.08,574.9 2548.28,574.9 2548.28,571.66 			"/>
		</g>
	</g>
	<g class="st4">
		<g>
			<g>
				<rect x="1918.84" y="1930.49" width="12.72" height="12.72"/>
			</g>
			<g>
				<rect x="1943.04" y="1930.49" width="12.72" height="12.72"/>
			</g>
			<g>
				<path d="M1980.61,1943.86h-14.01v-14.01h14.01V1943.86z M1967.89,1942.56h11.43v-11.42h-11.43V1942.56z"/>
			</g>
		</g>
		<g class="st4">
			<polygon points="1961.22,1933.23 1961.22,1932.69 1958.42,1932.69 1958.42,1927.58 1953.32,1927.58 1953.32,1924.79 
				1952.78,1924.79 1952.78,1927.58 1949.54,1927.58 1949.54,1924.79 1949,1924.79 1949,1927.58 1945.76,1927.58 1945.76,1924.79 
				1945.22,1924.79 1945.22,1927.58 1940.12,1927.58 1940.12,1932.69 1937.32,1932.69 1937.32,1933.23 1940.12,1933.23 
				1940.12,1936.47 1937.32,1936.47 1937.32,1937.01 1940.12,1937.01 1940.12,1940.24 1937.32,1940.24 1937.32,1940.78 
				1940.12,1940.78 1940.12,1945.89 1945.22,1945.89 1945.22,1948.69 1945.76,1948.69 1945.76,1945.89 1949,1945.89 1949,1948.69 
				1949.54,1948.69 1949.54,1945.89 1952.78,1945.89 1952.78,1948.69 1953.32,1948.69 1953.32,1945.89 1958.42,1945.89 
				1958.42,1940.78 1961.22,1940.78 1961.22,1940.24 1958.42,1940.24 1958.42,1937.01 1961.22,1937.01 1961.22,1936.47 
				1958.42,1936.47 1958.42,1933.23 			"/>
		</g>
	</g>
	<g class="st4">
		<g>
			<polygon points="2612.16,1280.04 2630.24,1280.04 2630.24,1273.2 2640.41,1283.37 2630.24,1293.54 2630.24,1286.71 
				2612.16,1286.71 			"/>
		</g>
		<g>
			<path d="M2602.5,1283.75c0-13.13,10.68-23.81,23.81-23.81c13.13,0,23.81,10.68,23.81,23.81s-10.68,23.81-23.81,23.81
				C2613.18,1307.55,2602.5,1296.87,2602.5,1283.75z M2606.61,1283.75c0,10.86,8.84,19.7,19.7,19.7s19.7-8.84,19.7-19.7
				c0-10.86-8.84-19.7-19.7-19.7S2606.61,1272.88,2606.61,1283.75z"/>
		</g>
	</g>
	<g class="st4">
		<g>
			<polygon points="1598.98,425.31 1580.89,425.31 1580.89,418.48 1570.72,428.65 1580.89,438.82 1580.89,431.98 1598.98,431.98 			
				"/>
		</g>
		<g>
			<path d="M1584.83,452.83c-13.13,0-23.81-10.68-23.81-23.81s10.68-23.81,23.81-23.81c13.13,0,23.81,10.68,23.81,23.81
				S1597.95,452.83,1584.83,452.83z M1584.83,409.32c-10.86,0-19.7,8.84-19.7,19.7c0,10.86,8.84,19.7,19.7,19.7
				c10.86,0,19.7-8.84,19.7-19.7C1604.53,418.16,1595.69,409.32,1584.83,409.32z"/>
		</g>
	</g>
	<g class="st4">
		<g>
			<polygon points="1983.74,551.18 1965.65,551.18 1965.65,544.35 1955.48,554.52 1965.65,564.69 1965.65,557.86 1983.74,557.86 			
				"/>
		</g>
		<g>
			<path d="M1969.59,578.7c-13.13,0-23.81-10.68-23.81-23.81s10.68-23.81,23.81-23.81c13.13,0,23.81,10.68,23.81,23.81
				S1982.72,578.7,1969.59,578.7z M1969.59,535.19c-10.86,0-19.7,8.84-19.7,19.7c0,10.86,8.84,19.7,19.7,19.7s19.7-8.84,19.7-19.7
				C1989.29,544.03,1980.45,535.19,1969.59,535.19z"/>
		</g>
	</g>
	<g>
		<polygon class="st1" points="2119.3,1374.44 2127.87,1374.44 2116.78,1355.88 2127.87,1337.33 2119.3,1337.33 2108.21,1355.88 		
			"/>
		<polygon class="st2" points="2133.03,1374.44 2141.61,1374.44 2130.51,1355.88 2141.61,1337.33 2133.03,1337.33 2121.94,1355.88 
					"/>
		<polygon class="st3" points="2146.77,1374.44 2155.34,1374.44 2144.25,1355.88 2155.34,1337.33 2146.77,1337.33 2135.68,1355.88 
					"/>
	</g>
	<g>
		<polygon class="st1" points="1836.72,342.86 1845.29,342.86 1834.19,324.31 1845.29,305.75 1836.72,305.75 1825.62,324.31 		"/>
		<polygon class="st2" points="1850.45,342.86 1859.02,342.86 1847.93,324.31 1859.02,305.75 1850.45,305.75 1839.36,324.31 		"/>
		<polygon class="st3" points="1864.19,342.86 1872.76,342.86 1861.66,324.31 1872.76,305.75 1864.19,305.75 1853.09,324.31 		"/>
	</g>
	<g>
		<g>
			<path d="M2792.2,232.9c7.83,0,14.22-6.25,14.47-14.02H3000v-1.56h-193.36c-0.56-7.49-6.81-13.42-14.44-13.42
				c-8,0-14.5,6.5-14.5,14.5C2777.7,226.4,2784.2,232.9,2792.2,232.9z M2792.2,205.47c7.13,0,12.94,5.8,12.94,12.94
				c0,7.13-5.8,12.94-12.94,12.94c-7.13,0-12.94-5.8-12.94-12.94C2779.26,211.27,2785.07,205.47,2792.2,205.47z"/>
		</g>
	</g>
	<g>
		<g>
			<ellipse transform="matrix(0.9871 -0.1602 0.1602 0.9871 -128.5858 188.7827)" cx="1106.64" cy="891.95" rx="9.61" ry="9.61"/>
			<path d="M1106.64,909.73c9.54,0,17.33-7.56,17.74-17l423.95,0.02c12.69,0,24.63,4.94,33.6,13.92l65.76,65.75
				c9.27,9.27,21.6,14.38,34.71,14.38h93.87c13.11,0,25.44-5.11,34.71-14.38l29.74-29.74c2.46,2.2,5.69,3.55,9.25,3.55
				c7.68,0,13.9-6.22,13.9-13.9s-6.22-13.9-13.9-13.9c-7.68,0-13.9,6.22-13.9,13.9c0,3.56,1.35,6.79,3.55,9.25l-29.74,29.74
				c-8.98,8.98-20.91,13.92-33.6,13.92h-93.87c-12.69,0-24.63-4.94-33.6-13.92l-65.76-65.76c-9.27-9.27-21.6-14.38-34.71-14.38
				l-423.95-0.02c-0.41-9.44-8.2-17-17.74-17c-9.8,0-17.78,7.98-17.78,17.78C1088.86,901.76,1096.84,909.73,1106.64,909.73z
				 M1106.64,877.3c8.08,0,14.66,6.57,14.66,14.66c0,8.08-6.57,14.66-14.66,14.66c-8.08,0-14.66-6.58-14.66-14.66
				C1091.99,883.87,1098.56,877.3,1106.64,877.3z"/>
		</g>
		<path class="st4" d="M1849.19,952.97c-11.36,0-20.6-9.24-20.6-20.6c0-11.36,9.24-20.6,20.6-20.6c11.36,0,20.6,9.24,20.6,20.6
			C1869.79,943.73,1860.55,952.97,1849.19,952.97z M1849.19,914.51c-9.85,0-17.86,8.01-17.86,17.86c0,9.85,8.01,17.86,17.86,17.86
			c9.85,0,17.86-8.01,17.86-17.86C1867.05,922.52,1859.04,914.51,1849.19,914.51z"/>
	</g>
	<g>
		<path d="M2076.31,1534.89c-7.99,0-14.5,6.5-14.5,14.5c0,7.83,6.25,14.22,14.02,14.47v58.46c0,12.69-4.94,24.63-13.92,33.61
			c-8.98,8.98-20.91,13.92-33.6,13.92h-98.83c-12.69,0-24.63-4.94-33.61-13.92l-65.87-65.87c-9.27-9.27-21.6-14.38-34.71-14.38
			l-286.66,0c-0.26-7.77-6.64-14.02-14.47-14.02c-7.99,0-14.5,6.51-14.5,14.5c0,7.99,6.5,14.5,14.5,14.5
			c7.63,0,13.89-5.93,14.44-13.42l286.69,0c12.69,0,24.63,4.94,33.6,13.92l65.87,65.87c9.27,9.27,21.6,14.38,34.71,14.38h98.83
			c13.11,0,25.44-5.11,34.71-14.38c9.27-9.27,14.38-21.6,14.38-34.71v-58.49c7.49-0.56,13.42-6.81,13.42-14.44
			C2090.81,1541.4,2084.31,1534.89,2076.31,1534.89z M1494.15,1589.09c-7.13,0-12.94-5.8-12.94-12.94c0-7.13,5.8-12.94,12.94-12.94
			c7.13,0,12.94,5.8,12.94,12.94C1507.09,1583.29,1501.28,1589.09,1494.15,1589.09z"/>
		<path d="M1494.15,1568.87c-4.02,0-7.28,3.26-7.28,7.28c0,4.02,3.26,7.28,7.28,7.28c4.02,0,7.28-3.26,7.28-7.28
			C1501.43,1572.13,1498.17,1568.87,1494.15,1568.87z"/>
	</g>
	<g>
		<path d="M1919.38,1428.53c-9.54,0-17.33,7.56-17.74,17h-164.17c-12.69,0-24.63-4.94-33.6-13.92l-65.87-65.87
			c-9.27-9.27-21.6-14.38-34.71-14.38l-204.44-0.01c-0.26-7.77-6.64-14.02-14.47-14.02c-7.99,0-14.5,6.51-14.5,14.5
			c0,7.99,6.5,14.5,14.5,14.5c7.63,0,13.89-5.93,14.44-13.42l204.47,0.01c12.69,0,24.63,4.94,33.61,13.92l65.87,65.87
			c9.27,9.27,21.6,14.38,34.71,14.38h164.17c0.41,9.44,8.2,17,17.74,17c9.8,0,17.78-7.98,17.78-17.78
			C1937.16,1436.5,1929.18,1428.53,1919.38,1428.53z M1384.36,1364.77c-7.13,0-12.94-5.8-12.94-12.94c0-7.13,5.8-12.94,12.94-12.94
			c7.13,0,12.94,5.8,12.94,12.94C1397.3,1358.96,1391.5,1364.77,1384.36,1364.77z M1919.38,1460.96c-8.08,0-14.66-6.58-14.66-14.66
			c0-8.08,6.57-14.66,14.66-14.66c8.08,0,14.66,6.57,14.66,14.66C1934.04,1454.39,1927.46,1460.96,1919.38,1460.96z"/>
		<circle cx="1919.38" cy="1446.31" r="9.61"/>
		<path d="M1384.36,1344.55c-4.02,0-7.28,3.26-7.28,7.28c0,4.02,3.26,7.28,7.28,7.28c4.02,0,7.28-3.26,7.28-7.28
			C1391.65,1347.81,1388.39,1344.55,1384.36,1344.55z"/>
	</g>
	<g>
		<path d="M2141.06,111.2c-7.99,0-14.5,6.5-14.5,14.5c0,7.83,6.25,14.22,14.02,14.47v58.46c0,12.69-4.94,24.63-13.92,33.61
			c-8.98,8.98-20.91,13.92-33.6,13.92h-98.83c-12.69,0-24.63-4.94-33.61-13.92l-65.87-65.87c-9.27-9.27-21.6-14.38-34.71-14.38
			l-260.73,0.03c-0.26-7.77-6.64-14.02-14.47-14.02c-7.99,0-14.5,6.5-14.5,14.5c0,7.99,6.5,14.5,14.5,14.5
			c7.63,0,13.89-5.93,14.44-13.42l260.76-0.03c12.69,0,24.63,4.94,33.6,13.92l65.87,65.87c9.27,9.27,21.6,14.38,34.71,14.38h98.83
			c13.11,0,25.44-5.11,34.71-14.38c9.27-9.27,14.38-21.6,14.38-34.71v-58.49c7.49-0.56,13.42-6.81,13.42-14.44
			C2155.56,117.71,2149.05,111.2,2141.06,111.2z M1584.83,165.43c-7.13,0-12.94-5.8-12.94-12.94c0-7.13,5.8-12.94,12.94-12.94
			c7.13,0,12.94,5.8,12.94,12.94C1597.76,159.63,1591.96,165.43,1584.83,165.43z M2141.06,138.64c-7.13,0-12.94-5.8-12.94-12.94
			s5.8-12.94,12.94-12.94c7.13,0,12.94,5.8,12.94,12.94S2148.19,138.64,2141.06,138.64z"/>
		<path d="M1584.83,145.22c-4.02,0-7.28,3.26-7.28,7.28c0,4.02,3.26,7.28,7.28,7.28c4.02,0,7.28-3.26,7.28-7.28
			C1592.11,148.48,1588.85,145.22,1584.83,145.22z"/>
	</g>
	<g>
		<path d="M2250.26,1739.15c-5.31,0-9.61,4.3-9.61,9.61c0,5.31,4.3,9.61,9.61,9.61s9.61-4.3,9.61-9.61
			C2259.87,1743.45,2255.57,1739.15,2250.26,1739.15z"/>
		<path d="M2250.26,1730.97c-9.54,0-17.33,7.56-17.74,17h-226.17c-13.11,0-25.44,5.11-34.71,14.38l-48.97,48.97
			c-8.98,8.98-20.91,13.92-33.61,13.92h-231.96v0.04h-29.1c-0.56-7.49-6.81-13.42-14.44-13.42c-8,0-14.5,6.5-14.5,14.5
			c0,7.99,6.5,14.5,14.5,14.5c7.83,0,14.22-6.25,14.47-14.02h72.04v-0.04h188.98c13.11,0,25.44-5.11,34.71-14.38l48.97-48.97
			c8.98-8.98,20.91-13.92,33.6-13.92h226.17c0.41,9.44,8.2,17,17.74,17c9.8,0,17.78-7.98,17.78-17.78
			C2268.04,1738.95,2260.06,1730.97,2250.26,1730.97z M1613.57,1839.3c-7.13,0-12.94-5.8-12.94-12.94c0-7.13,5.8-12.94,12.94-12.94
			c7.13,0,12.94,5.8,12.94,12.94C1626.5,1833.5,1620.7,1839.3,1613.57,1839.3z M2250.26,1763.41c-8.08,0-14.66-6.58-14.66-14.66
			c0-8.08,6.57-14.66,14.66-14.66c8.08,0,14.66,6.57,14.66,14.66C2264.92,1756.84,2258.34,1763.41,2250.26,1763.41z"/>
	</g>
</g>
</svg>
